<?xml version="1.0" standalone="no"?>
<!DOCTYPE svg PUBLIC "-//W3C//DTD SVG 20010904//EN"
 "http://www.w3.org/TR/2001/REC-SVG-20010904/DTD/svg10.dtd">
<svg version="1.0" xmlns="http://www.w3.org/2000/svg"
 width="512.000000pt" height="512.000000pt" viewBox="0 0 512.000000 512.000000"
 preserveAspectRatio="xMidYMid meet">

<g transform="translate(0.000000,512.000000) scale(0.100000,-0.100000)"
fill="#000000" stroke="none">
<path d="M2260 5026 c-836 -107 -1559 -621 -1925 -1370 -120 -246 -191 -468
-232 -726 -26 -163 -26 -577 0 -740 41 -258 112 -480 232 -726 239 -490 639
-890 1129 -1129 246 -120 466 -190 726 -232 163 -25 577 -25 740 0 258 41 497
117 730 233 492 244 886 639 1125 1128 89 182 135 305 180 480 58 228 70 330
70 616 0 286 -12 388 -70 615 -46 179 -97 315 -182 487 -243 491 -638 884
-1128 1124 -241 117 -466 189 -715 229 -142 23 -537 29 -680 11z m475 -772
c444 -100 709 -561 575 -999 -64 -207 -207 -373 -405 -470 -121 -60 -204 -78
-345 -79 -139 -1 -217 17 -345 79 -195 95 -330 248 -401 457 -113 332 20 712
315 903 184 119 392 156 606 109z m-17 -1795 c345 -38 649 -170 904 -393 100
-88 148 -142 201 -229 159 -261 85 -629 -164 -812 -33 -24 -113 -71 -179 -104
-304 -155 -581 -222 -920 -222 -234 0 -428 30 -642 101 -125 42 -378 167 -456
225 -239 180 -318 505 -188 770 45 91 111 171 217 264 339 300 793 448 1227
400z"/>
</g>
</svg>
