<?xml version="1.0" encoding="UTF-8"?>
<svg version="1.1" xmlns="http://www.w3.org/2000/svg" width="512" height="512">
<path d="M0 0 C0.80199332 -0.00495952 1.60398665 -0.00991903 2.4302828 -0.01502883 C5.11656204 -0.02797801 7.80234367 -0.01960244 10.48863506 -0.01129913 C12.43445888 -0.01618836 14.38027979 -0.02237831 16.32609576 -0.02975702 C21.6725606 -0.0461757 27.01887817 -0.04383465 32.36535943 -0.03838205 C38.13168949 -0.03571424 43.89798009 -0.05023901 49.66429424 -0.06247711 C60.96115786 -0.08354393 72.25797016 -0.08807124 83.55485109 -0.08628923 C92.73652777 -0.08498221 101.91818843 -0.08878268 111.0998621 -0.09621429 C113.74346485 -0.09831346 116.38706759 -0.10041107 119.03067034 -0.10250711 C120.34642126 -0.10355064 121.66217218 -0.10459417 123.01779433 -0.10566932 C140.83702021 -0.11943998 158.65624055 -0.12679483 176.4754715 -0.12234497 C177.17226724 -0.12217302 177.86906299 -0.12200106 178.58697376 -0.1218239 C182.11856962 -0.12093501 185.65016546 -0.1199902 189.1817613 -0.11902589 C189.88314047 -0.11883485 190.58451964 -0.11864382 191.30715273 -0.118447 C192.72551196 -0.11805991 194.1438712 -0.11766958 195.56223043 -0.11727602 C217.62991983 -0.11130653 239.69750435 -0.12674212 261.7651701 -0.15888214 C286.56194377 -0.19496634 311.35865037 -0.21424701 336.15545195 -0.20934343 C349.28346957 -0.20709781 362.41138322 -0.2123556 375.53938007 -0.23723602 C386.71594466 -0.25823751 397.89234828 -0.26185248 409.06891946 -0.24293643 C414.77144013 -0.23377154 420.47366057 -0.232659 426.17615795 -0.25329208 C431.39786777 -0.27197661 436.61903094 -0.26752646 441.84071978 -0.24474627 C443.72829453 -0.24055418 445.61591098 -0.24478091 447.50344167 -0.25834221 C467.63290467 -0.39310038 467.63290467 -0.39310038 475.9179557 7.37286997 C481.99162619 13.68248109 484.2544097 19.9066084 484.17830944 28.58791065 C484.18326896 29.38990398 484.18822847 30.1918973 484.19333827 31.01819345 C484.20628745 33.70447269 484.19791188 36.39025432 484.18960857 39.07654572 C484.1944978 41.02236953 484.20068775 42.96819044 484.20806646 44.91400641 C484.22448514 50.26047125 484.22214409 55.60678882 484.21669149 60.95327008 C484.21402368 66.71960015 484.22854845 72.48589074 484.24078655 78.2522049 C484.26185337 89.54906851 484.26638068 100.84588081 484.26459867 112.14276174 C484.26329165 121.32443843 484.26709212 130.50609908 484.27452374 139.68777275 C484.27662291 142.3313755 484.27872051 144.97497825 484.28081656 147.618581 C484.28238185 149.59220737 484.28238185 149.59220737 484.28397876 151.60570499 C484.29774942 169.42493086 484.30510427 187.24415121 484.30065441 205.06338215 C484.30048246 205.76017789 484.3003105 206.45697364 484.30013334 207.17488441 C484.29924445 210.70648027 484.29829964 214.23807611 484.29733533 217.76967195 C484.29714429 218.47105112 484.29695326 219.17243029 484.29675644 219.89506338 C484.29636935 221.31342261 484.29597902 222.73178185 484.29558546 224.15014108 C484.28961597 246.21783048 484.30505156 268.285415 484.33719158 290.35308075 C484.37327578 315.14985442 484.39255645 339.94656103 484.38765287 364.74336261 C484.38540725 377.87138022 484.39066504 390.99929388 484.41554546 404.12729073 C484.43654695 415.30385532 484.44016192 426.48025894 484.42124587 437.65683011 C484.41208098 443.35935078 484.41096844 449.06157123 484.43160152 454.7640686 C484.45028605 459.98577842 484.4458359 465.20694159 484.42305571 470.42863043 C484.41886362 472.31620518 484.42309035 474.20382163 484.43665165 476.09135232 C484.57140982 496.22081532 484.57140982 496.22081532 476.80543947 504.50586635 C470.49582835 510.57953684 464.27170104 512.84232035 455.59039879 512.76622009 C454.78840546 512.77117961 453.98641214 512.77613912 453.16011599 512.78124893 C450.47383675 512.7941981 447.78805512 512.78582254 445.10176373 512.77751923 C443.15593991 512.78240845 441.210119 512.7885984 439.26430303 512.79597712 C433.91783819 512.8123958 428.57152062 512.81005475 423.22503936 512.80460215 C417.45870929 512.80193433 411.6924187 512.81645911 405.92610455 512.8286972 C394.62924093 512.84976402 383.33242863 512.85429133 372.0355477 512.85250932 C362.85387101 512.8512023 353.67221036 512.85500278 344.49053669 512.86243439 C341.84693394 512.86453356 339.20333119 512.86663116 336.55972844 512.86872721 C335.24397753 512.86977073 333.92822661 512.87081426 332.57260446 512.87188941 C314.75337858 512.88566007 296.93415823 512.89301493 279.11492729 512.88856506 C278.41813155 512.88839311 277.7213358 512.88822115 277.00342503 512.88804399 C273.47182917 512.8871551 269.94023333 512.88621029 266.40863749 512.88524598 C265.70725832 512.88505495 265.00587915 512.88486391 264.28324606 512.88466709 C262.86488683 512.88428 261.44652759 512.88388967 260.02816836 512.88349611 C237.96047896 512.87752663 215.89289444 512.89296221 193.82522869 512.92510223 C169.02845502 512.96118643 144.23174841 512.9804671 119.43494684 512.97556353 C106.30692922 512.9733179 93.17901557 512.97857569 80.05101871 513.00345612 C68.87445412 513.0244576 57.6980505 513.02807257 46.52147933 513.00915653 C40.81895866 512.99999163 35.11673821 512.99887909 29.41424084 513.01951218 C24.19253102 513.0381967 18.97136785 513.03374655 13.74967901 513.01096636 C11.86210426 513.00677428 9.97448781 513.011001 8.08695712 513.0245623 C-12.04250588 513.15932047 -12.04250588 513.15932047 -20.32755691 505.39335012 C-26.4012274 499.083739 -28.66401091 492.8596117 -28.58791065 484.17830944 C-28.59287017 483.37631612 -28.59782968 482.57432279 -28.60293949 481.74802664 C-28.61588866 479.0617474 -28.60751309 476.37596578 -28.59920979 473.68967438 C-28.60409901 471.74385056 -28.61028896 469.79802965 -28.61766768 467.85221368 C-28.63408636 462.50574884 -28.63174531 457.15943127 -28.62629271 451.81295002 C-28.62362489 446.04661995 -28.63814967 440.28032935 -28.65038776 434.5140152 C-28.67145458 423.21715158 -28.67598189 411.92033928 -28.67419988 400.62345835 C-28.67289286 391.44178167 -28.67669334 382.26012101 -28.68412495 373.07844734 C-28.68622412 370.43484459 -28.68832172 367.79124185 -28.69041777 365.1476391 C-28.69146129 363.83188818 -28.69250482 362.51613726 -28.69357997 361.16051511 C-28.70735063 343.34128923 -28.71470548 325.52206889 -28.71025562 307.70283794 C-28.70999769 306.65764432 -28.70999769 306.65764432 -28.70973455 305.59133568 C-28.70884566 302.05973982 -28.70790085 298.52814398 -28.70693654 294.99654814 C-28.70674551 294.29516897 -28.70655447 293.5937898 -28.70635765 292.87115671 C-28.70597056 291.45279748 -28.70558023 290.03443824 -28.70518667 288.61607901 C-28.69921719 266.54838961 -28.71465277 244.48080509 -28.74679279 222.41313934 C-28.78287699 197.61636567 -28.80215766 172.81965907 -28.79725409 148.02285749 C-28.79500846 134.89483987 -28.80026625 121.76692622 -28.82514668 108.63892937 C-28.84614816 97.46236478 -28.84976313 86.28596116 -28.83084708 75.10938998 C-28.82168219 69.40686931 -28.82056965 63.70464887 -28.84120274 58.00215149 C-28.85988726 52.78044167 -28.85543711 47.5592785 -28.83265692 42.33758966 C-28.82846483 40.45001491 -28.83269156 38.56239846 -28.84625286 36.67486777 C-28.98101103 16.54540477 -28.98101103 16.54540477 -21.21504068 8.26035374 C-14.90542956 2.18668326 -8.68130226 -0.07610026 0 0 Z M-9.57980061 21.82061005 C-20.04452418 38.32267415 -12.20480061 60.84267609 -12.20480061 80.38311005 C146.19519939 80.38311005 304.59519939 80.38311005 467.79519939 80.38311005 C470.17374338 50.08700902 470.17374338 50.08700902 464.79519939 21.38311005 C459.60880346 16.32969862 455.16792848 16.23453838 448.20104027 16.25168228 C447.42862367 16.24962965 446.65620706 16.24757701 445.8603839 16.24546218 C443.25682733 16.23978117 440.65332347 16.24125078 438.04976177 16.24266815 C436.17038881 16.24008515 434.2910164 16.23707218 432.41164476 16.23366475 C427.23507605 16.22558394 422.05852119 16.22380458 416.88194692 16.22306728 C411.303777 16.22121863 405.7256143 16.21367229 400.14744854 16.20693207 C387.94512619 16.193341 375.74280713 16.18732295 363.54047847 16.18292141 C355.92473992 16.18016055 348.30900265 16.17592351 340.69326496 16.17141724 C319.61694673 16.15922405 298.54062935 16.14888912 277.46430779 16.14554214 C276.10134888 16.14532051 274.73838998 16.14509873 273.37543108 16.14487679 C272.00917283 16.14465615 270.64291458 16.14443567 269.27665633 16.14421535 C266.53568566 16.14377279 263.79471499 16.14332568 261.05374432 16.14287567 C260.37414291 16.14276628 259.6945415 16.14265689 258.99434611 16.14254418 C236.9531665 16.13891272 214.91201977 16.12298903 192.87085276 16.09968531 C169.57062161 16.0750954 146.27041181 16.06137644 122.97016507 16.06017423 C110.26755494 16.05925655 97.56498786 16.05348093 84.86238956 16.03535461 C74.04765436 16.01997683 63.23297551 16.01481946 52.41823145 16.02309272 C46.89844268 16.02700732 41.37876747 16.02603008 35.85899258 16.01203537 C30.80768152 15.99934524 25.75656994 16.00045085 20.70525936 16.01262608 C18.87619326 16.01459157 17.04711326 16.01146558 15.21806671 16.00278172 C12.73409531 15.99173347 10.2508334 15.99914603 7.76688194 16.01117325 C7.05483291 16.00357805 6.34278387 15.99598286 5.60915759 15.98815751 C-0.49498533 16.05207281 -5.24672938 17.37351063 -9.57980061 21.82061005 Z M-12.20480061 96.38311005 C-12.26667561 160.25873505 -12.32855061 224.13436005 -12.39230061 289.94561005 C-12.41961262 310.13821014 -12.44692463 330.33081024 -12.47506428 351.13530731 C-12.4850956 369.18565292 -12.4850956 369.18565292 -12.49113178 387.23600006 C-12.49393448 395.29571901 -12.50496045 403.35537589 -12.52152729 411.41507721 C-12.54059597 420.70561385 -12.54931484 429.99609077 -12.54513546 439.28664714 C-12.54332475 444.04123604 -12.54623644 448.79569137 -12.562446 453.55025589 C-12.57701001 457.84818934 -12.57779361 462.14589433 -12.56750393 466.44383812 C-12.56622982 467.99889764 -12.57005165 469.5539713 -12.57944834 471.10900295 C-12.59149652 473.22702485 -12.58499454 475.34422593 -12.57394409 477.46223545 C-12.57508325 478.63822931 -12.57622241 479.81422318 -12.57739609 481.02585322 C-12.00741504 486.16164484 -10.5418873 490.08030762 -6.76730061 493.75811005 C-2.19886229 496.65516849 2.09418398 496.52756801 7.38935852 496.51453781 C8.54798342 496.51761676 8.54798342 496.51761676 9.73001489 496.52075791 C12.33357146 496.52643892 14.93707532 496.52496931 17.54063702 496.52355194 C19.42000998 496.52613494 21.29938239 496.52914792 23.17875403 496.53255534 C28.35532274 496.54063615 33.5318776 496.54241551 38.70845187 496.54315281 C44.28662179 496.54500146 49.86478449 496.5525478 55.44295025 496.55928802 C67.6452726 496.57287909 79.84759166 496.57889714 92.04992032 496.58329868 C99.66565887 496.58605954 107.28139614 496.59029658 114.89713383 496.59480286 C135.97345206 496.60699605 157.04976944 496.61733097 178.126091 496.62067795 C179.48904991 496.62089958 180.85200881 496.62112136 182.21496771 496.6213433 C183.58122596 496.62156394 184.94748421 496.62178442 186.31374246 496.62200475 C189.05471313 496.6224473 191.7956838 496.62289442 194.53665447 496.62334442 C195.21625588 496.62345381 195.89585729 496.6235632 196.59605268 496.62367591 C218.63723229 496.62730737 240.67837902 496.64323106 262.71954603 496.66653479 C286.01977718 496.69112469 309.31998698 496.70484365 332.62023371 496.70604587 C345.32284385 496.70696354 358.02541093 496.71273917 370.72800922 496.73086548 C381.54274443 496.74624326 392.35742328 496.75140064 403.17216734 496.74312738 C408.69195611 496.73921277 414.21163132 496.74019001 419.73140621 496.75418472 C424.78271726 496.76687485 429.83382884 496.76576925 434.88513943 496.75359401 C436.71420553 496.75162853 438.54328553 496.75475451 440.37233207 496.76343837 C442.85630348 496.77448662 445.33956539 496.76707406 447.82351685 496.75504684 C448.8915904 496.76643963 448.8915904 496.76643963 449.9812412 496.77806258 C455.02490447 496.72525136 458.38710489 495.66271131 462.79519939 493.38311005 C467.6196504 488.43169981 467.92041459 484.55020563 467.91824722 477.83137894 C467.91940097 477.17143457 467.92055471 476.5114902 467.92174342 475.83154751 C467.9243981 473.61171031 467.91989836 471.39194503 467.91545391 469.17211151 C467.91589124 467.57211541 467.91676799 465.97211937 467.9180479 464.37212372 C467.92029629 459.95917309 467.91627005 455.54624661 467.91127212 451.13329905 C467.90691525 446.30754364 467.90836609 441.4817894 467.90909004 436.65603256 C467.9096224 427.28216777 467.90499824 417.90831253 467.89858871 408.53445019 C467.8913985 397.69510278 467.8905945 386.85576115 467.88980389 376.01641083 C467.88455009 347.38864238 467.87058903 318.76087607 467.85769939 290.13311005 C467.82676189 194.22686005 467.82676189 194.22686005 467.79519939 96.38311005 C309.39519939 96.38311005 150.99519939 96.38311005 -12.20480061 96.38311005 Z " fill="#000000" transform="translate(28.204800605773926,-0.38311004638671875)"/>
<path d="M0 0 C8.69162082 1.76778729 15.64668375 11.58636838 21.6875 17.6875 C22.55761719 18.56212891 23.42773438 19.43675781 24.32421875 20.33789062 C26.44763549 22.47297449 28.56866378 24.61037205 30.6875 26.75 C34.57793633 25.17204085 37.16445368 22.51445619 40.0390625 19.55859375 C40.5391684 19.05328629 41.03927429 18.54797882 41.55453491 18.02735901 C43.14536943 16.41876916 44.72933084 14.80363181 46.3125 13.1875 C47.90367776 11.56869762 49.49629701 9.95138179 51.09188843 8.33692932 C52.08297098 7.33359573 53.07136808 6.32760092 54.05679321 5.31871033 C57.40869078 1.91788518 58.69143734 0.83032763 63.5625 0.4375 C66.51718653 0.49659373 67.57808393 0.68435036 70.1875 2.25 C71.88177714 5.07379523 72.4399201 7.32875551 72.25683594 10.63183594 C71.56524206 13.20484987 70.56114763 14.42949082 68.765625 16.390625 C68.13229248 17.08317383 67.49895996 17.77572266 66.84643555 18.48925781 C62.87977509 22.64296988 58.83123769 26.70910915 54.75 30.75 C53.87537109 31.62011719 53.00074219 32.49023438 52.09960938 33.38671875 C49.96452551 35.51013549 47.82712795 37.63116378 45.6875 39.75 C47.26545915 43.64043633 49.92304381 46.22695368 52.87890625 49.1015625 C53.38421371 49.6016684 53.88952118 50.10177429 54.41014099 50.61703491 C56.01873084 52.20786943 57.63386819 53.79183084 59.25 55.375 C60.86880238 56.96617776 62.48611821 58.55879701 64.10057068 60.15438843 C65.10390427 61.14547098 66.10989908 62.13386808 67.11878967 63.11929321 C70.2375062 66.19314085 71.56176855 67.63937224 72.0625 72.0625 C71.6875 75.75 71.6875 75.75 69.625 78.6875 C66.6875 80.75 66.6875 80.75 63.375 81.5 C54.68337918 79.73221271 47.72831625 69.91363162 41.6875 63.8125 C40.81738281 62.93787109 39.94726562 62.06324219 39.05078125 61.16210938 C36.92736451 59.02702551 34.80633622 56.88962795 32.6875 54.75 C28.762398 56.34299461 26.33971267 58.89857464 23.40625 61.90625 C22.91088745 62.40918579 22.4155249 62.91212158 21.90515137 63.43029785 C20.32768052 65.0321235 18.7568403 66.6402103 17.1875 68.25 C15.12039412 70.37038507 13.04671739 72.48401406 10.96875 74.59375 C10.05158203 75.53412109 9.13441406 76.47449219 8.18945312 77.44335938 C6.00426906 79.4579592 4.46472297 80.77266973 1.6875 81.75 C-1.6693842 81.57332188 -4.27667908 81.37149255 -7.1875 79.625 C-8.96233667 76.66693888 -9.19450002 74.17199954 -9.3125 70.75 C-7.23508189 66.45661021 -4.1384859 63.31241595 -0.76953125 60.01171875 C-0.24107101 59.48608841 0.28738922 58.96045807 0.8318634 58.41889954 C2.50824262 56.75364752 4.19146589 55.09551508 5.875 53.4375 C7.01803861 52.30450083 8.16062169 51.17104191 9.30273438 50.03710938 C12.09241332 47.26939172 14.88824873 44.50803452 17.6875 41.75 C16.10954085 37.85956367 13.45195619 35.27304632 10.49609375 32.3984375 C9.99078629 31.8983316 9.48547882 31.39822571 8.96485901 30.88296509 C7.35626916 29.29213057 5.74113181 27.70816916 4.125 26.125 C2.50619762 24.53382224 0.88888179 22.94120299 -0.72557068 21.34561157 C-1.72890427 20.35452902 -2.73489908 19.36613192 -3.74378967 18.38070679 C-6.8625062 15.30685915 -8.18676855 13.86062776 -8.6875 9.4375 C-8.3125 5.75 -8.3125 5.75 -6.25 2.8125 C-3.3125 0.75 -3.3125 0.75 0 0 Z " fill="#000000" transform="translate(312.3125,207.25)"/>
<path d="M0 0 C8.69162082 1.76778729 15.64668375 11.58636838 21.6875 17.6875 C22.55761719 18.56212891 23.42773438 19.43675781 24.32421875 20.33789062 C26.44763549 22.47297449 28.56866378 24.61037205 30.6875 26.75 C34.57793633 25.17204085 37.16445368 22.51445619 40.0390625 19.55859375 C40.5391684 19.05328629 41.03927429 18.54797882 41.55453491 18.02735901 C43.14536943 16.41876916 44.72933084 14.80363181 46.3125 13.1875 C47.90367776 11.56869762 49.49629701 9.95138179 51.09188843 8.33692932 C52.08297098 7.33359573 53.07136808 6.32760092 54.05679321 5.31871033 C57.13064085 2.1999938 58.57687224 0.87573145 63 0.375 C66.6875 0.75 66.6875 0.75 69.625 2.8125 C71.6875 5.75 71.6875 5.75 72.4375 9.0625 C70.66971271 17.75412082 60.85113162 24.70918375 54.75 30.75 C53.87537109 31.62011719 53.00074219 32.49023438 52.09960938 33.38671875 C49.96452551 35.51013549 47.82712795 37.63116378 45.6875 39.75 C47.26545915 43.64043633 49.92304381 46.22695368 52.87890625 49.1015625 C53.38421371 49.6016684 53.88952118 50.10177429 54.41014099 50.61703491 C56.01873084 52.20786943 57.63386819 53.79183084 59.25 55.375 C60.86880238 56.96617776 62.48611821 58.55879701 64.10057068 60.15438843 C65.10390427 61.14547098 66.10989908 62.13386808 67.11878967 63.11929321 C70.2375062 66.19314085 71.56176855 67.63937224 72.0625 72.0625 C71.6875 75.75 71.6875 75.75 69.625 78.6875 C66.6875 80.75 66.6875 80.75 63.375 81.5 C54.68337918 79.73221271 47.72831625 69.91363162 41.6875 63.8125 C40.81738281 62.93787109 39.94726562 62.06324219 39.05078125 61.16210938 C36.92736451 59.02702551 34.80633622 56.88962795 32.6875 54.75 C28.762398 56.34299461 26.33971267 58.89857464 23.40625 61.90625 C22.91088745 62.40918579 22.4155249 62.91212158 21.90515137 63.43029785 C20.32768052 65.0321235 18.7568403 66.6402103 17.1875 68.25 C15.12039412 70.37038507 13.04671739 72.48401406 10.96875 74.59375 C10.05158203 75.53412109 9.13441406 76.47449219 8.18945312 77.44335938 C6.00426906 79.4579592 4.46472297 80.77266973 1.6875 81.75 C-1.6693842 81.57332188 -4.27667908 81.37149255 -7.1875 79.625 C-8.96233667 76.66693888 -9.19450002 74.17199954 -9.3125 70.75 C-7.23508189 66.45661021 -4.1384859 63.31241595 -0.76953125 60.01171875 C-0.24107101 59.48608841 0.28738922 58.96045807 0.8318634 58.41889954 C2.50824262 56.75364752 4.19146589 55.09551508 5.875 53.4375 C7.01803861 52.30450083 8.16062169 51.17104191 9.30273438 50.03710938 C12.09241332 47.26939172 14.88824873 44.50803452 17.6875 41.75 C16.10954085 37.85956367 13.45195619 35.27304632 10.49609375 32.3984375 C9.99078629 31.8983316 9.48547882 31.39822571 8.96485901 30.88296509 C7.35626916 29.29213057 5.74113181 27.70816916 4.125 26.125 C2.50619762 24.53382224 0.88888179 22.94120299 -0.72557068 21.34561157 C-1.72890427 20.35452902 -2.73489908 19.36613192 -3.74378967 18.38070679 C-6.8625062 15.30685915 -8.18676855 13.86062776 -8.6875 9.4375 C-8.3125 5.75 -8.3125 5.75 -6.25 2.8125 C-3.3125 0.75 -3.3125 0.75 0 0 Z " fill="#000000" transform="translate(136.3125,207.25)"/>
<path d="M0 0 C6.84688842 5.2952164 13.82870248 11.46295716 15.6875 20.25 C14.71214956 24.15140176 13.24268638 25.65422687 10 28 C6.5 28.625 6.5 28.625 3 28 C0.5625 26 0.5625 26 -2 23 C-12.68209033 10.72083244 -28.84359 2.91200118 -45 1 C-66.1687148 -0.15884152 -88.42889966 0.79691267 -105.25 15.4375 C-106.61125 16.7059375 -106.61125 16.7059375 -108 18 C-108.66 18 -109.32 18 -110 18 C-110.268125 18.57363281 -110.53625 19.14726562 -110.8125 19.73828125 C-112.03688657 22.07025435 -113.42002922 24.08218894 -115 26.1875 C-115.515625 26.88230469 -116.03125 27.57710938 -116.5625 28.29296875 C-118.73742667 30.87569416 -119.89912348 30.98858002 -123.3125 31.375 C-127 31 -127 31 -129.9375 28.9375 C-132.54386284 25.22540747 -132.45464826 23.47070788 -132 19 C-122.41381888 1.43666579 -104.89660825 -7.96617199 -86.51953125 -13.7734375 C-57.89115696 -21.96023161 -24.23198619 -17.89905709 0 0 Z " fill="#000000" transform="translate(314,354)"/>
<path d="M0 0 C2.5 1.5 2.5 1.5 4 4 C4.791013 8.02098277 4.62153384 10.96411027 2.5 14.5 C-1.03588973 16.62153384 -3.97901723 16.791013 -8 16 C-10.5 14.5 -10.5 14.5 -12 12 C-12.791013 7.97901723 -12.62153384 5.03588973 -10.5 1.5 C-6.96411027 -0.62153384 -4.02098277 -0.791013 0 0 Z " fill="#000000" transform="translate(460,40)"/>
<path d="M0 0 C2.5 1.5 2.5 1.5 4 4 C4.791013 8.02098277 4.62153384 10.96411027 2.5 14.5 C-1.03588973 16.62153384 -3.97901723 16.791013 -8 16 C-10.5 14.5 -10.5 14.5 -12 12 C-12.791013 7.97901723 -12.62153384 5.03588973 -10.5 1.5 C-6.96411027 -0.62153384 -4.02098277 -0.791013 0 0 Z " fill="#000000" transform="translate(428,40)"/>
<path d="M0 0 C2.5 1.5 2.5 1.5 4 4 C4.791013 8.02098277 4.62153384 10.96411027 2.5 14.5 C-1.03588973 16.62153384 -3.97901723 16.791013 -8 16 C-10.5 14.5 -10.5 14.5 -12 12 C-12.791013 7.97901723 -12.62153384 5.03588973 -10.5 1.5 C-6.96411027 -0.62153384 -4.02098277 -0.791013 0 0 Z " fill="#000000" transform="translate(396,40)"/>
</svg>
